# xmcd CD database generated by RipIT
#
# Track frame offsets:
# 182
# 21842
# 44440
# 65420
# 86052
# 91317
# 112337
# 133915
# 159652
# 168240
# 191545
# 210867
# 229912
#
# Disc length: 3486 seconds
#
# Revision: 4
# Processed by: cddbd v1.5.1PL0 Copyright (c) Steve Scherf et al.
# Submitted via: RipIT 3.4 www.suwald.com/ripit/ripit.html at Wed Aug 31 13:15:14 CEST 2005
#
DISCID=b20d9c0d
DTITLE=Charles and Eddie - Duophonic
DYEAR=1992
DGENRE=Soul
TTITLE0=House Is Not A Home
TTITLE1=N. Y. C.
TTITLE2=Would I Lie To You?
TTITLE3=Hurt No More
TTITLE4=I Understand
TTITLE5=Unconditional
TTITLE6=Love Is A Beautiful Thing
TTITLE7=Father To Son
TTITLE8=December 2
TTITLE9=Be A Little Easy On Me
TTITLE10=Vowel Song
TTITLE11=Where Do We Go From Here
TTITLE12=Shine
EXTD=
EXTT0=
EXTT1=
EXTT2=
EXTT3=
EXTT4=
EXTT5=
EXTT6=
EXTT7=
EXTT8=
EXTT9=
EXTT10=
EXTT11=
EXTT12=
PLAYORDER=
